# xmcd
#
# Track frame offsets:
# 150
# 37059
# 55177
# 72124
# 83224
# 98339
# 110302
# 136445
# 152407
# 168783
# 187298
# 203288
# 226418
# 244062
#
# Disc length: 3605 seconds
#
#
# Revision: 3
# Processed by: cddbd v1.5.1PL2 Copyright (c) Steve Scherf et al.
# Submitted via: FreeRIP 2.945 
#
DISCID=ac0e130e
DTITLE=Marco Brasil - A Emoção Continua
DYEAR=2002
DGENRE=Country
TTITLE0=Caminhos Da Vida
TTITLE1=Cowboy Da Estrada
TTITLE2=Esta É Minha Paixão
TTITLE3=Homem Maduro
TTITLE4=Agora Não Tem Mais Sentido
TTITLE5=Tô Chegando Na Fronteira
TTITLE6=Bens Materiais
TTITLE7=Se Encontrar Minha Paixão
TTITLE8=Vida Conturbada
TTITLE9=Magoa De Boiadeiro
TTITLE10=No Cabo Da Enxada
TTITLE11=Amor Pra Toda Vida
TTITLE12=Sou Caipira
TTITLE13=Filho Ingrato
EXTD=YEAR: 2002
EXTT0=
EXTT1=
EXTT2=
EXTT3=
EXTT4=
EXTT5=
EXTT6=
EXTT7=
EXTT8=
EXTT9=
EXTT10=
EXTT11=
EXTT12=
EXTT13=
PLAYORDER=
